<?xml version="1.0" encoding="utf-8"?>
<!-- Generator: Adobe Illustrator 21.1.0, SVG Export Plug-In . SVG Version: 6.00 Build 0)  -->
<svg version="1.1" id="Layer_1" xmlns="http://www.w3.org/2000/svg" xmlns:xlink="http://www.w3.org/1999/xlink" x="0px" y="0px"
	 viewBox="0 0 132.8 34" style="enable-background:new 0 0 132.8 34;" xml:space="preserve">
<style type="text/css">
	.st0{fill:#777878;}
	.st1{fill:#FFFFFF;}
	.st2{fill:url(#_Path_3_1_);}
	.st3{fill:none;}
	.st4{fill:url(#_Path_6_1_);}
	.st5{display:none;fill:#777878;}
	.st6{display:none;}
	.st7{display:inline;}
	.st8{fill:#999999;}
	.st9{fill:none;stroke:#FFFFFF;stroke-width:3;stroke-miterlimit:10;}
	.st10{font-family:'NewsGothicMT-Bold';}
	.st11{font-size:12.3191px;}
	.st12{fill:#787878;}
	.st13{font-family:'Roboto-Regular';}
	.st14{font-size:8.2703px;}
</style>
<title>Artboard 1 copy 2</title>
<g id="Icon">
	<g id="_Group_">
		<path id="_Path_" class="st0" d="M132.8,9.1c0-0.3,0-0.7,0-1c0-0.7-0.1-1.4-0.2-2.2c-0.1-0.7-0.3-1.4-0.7-2c-0.7-1.3-1.7-2.3-3-3
			c-0.6-0.3-1.3-0.6-2.1-0.7c-0.7-0.1-1.4-0.2-2.2-0.2H8.1C7.4,0,6.6,0.1,5.9,0.2c-0.7,0.1-1.4,0.4-2,0.7C3.3,1.2,2.7,1.6,2.2,2.2
			C1.6,2.7,1.2,3.2,0.9,3.9c-0.3,0.6-0.5,1.3-0.7,2C0.1,6.6,0,7.4,0,8.1c0,0.3,0,0.7,0,1v15.9c0,0.3,0,0.7,0,1
			c0,0.7,0.1,1.4,0.2,2.1c0.1,0.7,0.3,1.4,0.7,2c0.3,0.6,0.8,1.2,1.3,1.7c0.5,0.5,1.1,0.9,1.7,1.3c0.6,0.3,1.3,0.6,2,0.7
			C6.6,33.9,7.3,34,8.1,34h116.6c0.7,0,1.4-0.1,2.2-0.2c0.7-0.1,1.4-0.4,2-0.7c0.6-0.3,1.2-0.8,1.7-1.3c0.5-0.5,0.9-1.1,1.3-1.7
			c0.3-0.6,0.5-1.3,0.7-2c0.1-0.7,0.2-1.4,0.2-2.1c0-0.3,0-0.7,0-1s0-0.8,0-1.2V10.2C132.8,9.9,132.8,9.5,132.8,9.1z"/>
		<path id="_Path_2" class="st1" d="M132.1,23.8c0,0.4,0,0.8,0,1.2s0,0.6,0,1c0,0.7-0.1,1.4-0.2,2.1c-0.1,0.6-0.3,1.3-0.6,1.9
			c-0.3,0.6-0.7,1.1-1.1,1.6c-0.5,0.5-1,0.8-1.6,1.1c-0.6,0.3-1.2,0.5-1.9,0.6c-0.7,0.1-1.3,0.2-2,0.2H8.1c-0.7,0-1.4-0.1-2.1-0.2
			c-0.6-0.1-1.3-0.3-1.9-0.6C3,31.9,2,31,1.4,29.8C1.1,29.2,1,28.6,0.9,28c-0.1-0.7-0.2-1.4-0.2-2c0-0.2,0-0.5,0-0.7V8.8
			c0-0.2,0-0.4,0-0.7c0-0.7,0.1-1.4,0.2-2.1C1,5.4,1.2,4.8,1.5,4.2c0.3-0.6,0.7-1.1,1.1-1.6c0.5-0.5,1-0.9,1.6-1.1
			C4.8,1.2,5.4,1,6,0.9c0.7-0.1,1.4-0.2,2.1-0.2h116.6c0.7,0,1.4,0.1,2.1,0.2c0.6,0.1,1.3,0.3,1.9,0.6c0.6,0.3,1.1,0.7,1.6,1.1
			c0.5,0.5,0.9,1,1.1,1.6c0.3,0.6,0.5,1.2,0.6,1.9c0.1,0.7,0.2,1.3,0.2,2c0,0.3,0,0.6,0,1s0,0.8,0,1.2L132.1,23.8L132.1,23.8z"/>
		<g id="_Group_2">
			<g id="_Group_3">
				
					<linearGradient id="_Path_3_1_" gradientUnits="userSpaceOnUse" x1="17.4901" y1="1049.8132" x2="17.4901" y2="1072.2068" gradientTransform="matrix(1 0 0 1 0 -1044)">
					<stop  offset="0" style="stop-color:#F452FF"/>
					<stop  offset="1" style="stop-color:#832BC1"/>
				</linearGradient>
				<path id="_Path_3" class="st2" d="M28.2,25.2c-0.3,0.7-0.8,1.4-1.4,1.9c-0.5,0.4-1,0.7-1.6,0.8c-0.9,0.2-1.8,0.3-2.7,0.3H12.4
					c-0.9,0-1.8-0.1-2.7-0.3c-1.4-0.4-2.5-1.4-3-2.7c-0.3-1-0.5-2.1-0.4-3.2l0,0V12l0,0c0-1.1,0.1-2.2,0.4-3.2
					c0.5-1.3,1.6-2.3,3-2.7c0.9-0.2,1.8-0.3,2.7-0.3h10.1c0.9,0,1.8,0.1,2.7,0.3c1.4,0.4,2.5,1.4,3,2.7c0.3,1,0.5,2.1,0.4,3.2v10
					C28.7,23.1,28.6,24.2,28.2,25.2z"/>
				<path id="_Path_4" class="st3" d="M28.2,25.2c-0.3,0.7-0.8,1.4-1.4,1.9c-0.5,0.4-1,0.7-1.6,0.8c-0.9,0.2-1.8,0.3-2.7,0.3H12.4
					c-0.9,0-1.8-0.1-2.7-0.3c-1.4-0.4-2.5-1.4-3-2.7c-0.3-1-0.5-2.1-0.4-3.2l0,0V12l0,0c0-1.1,0.1-2.2,0.4-3.2
					c0.5-1.3,1.6-2.3,3-2.7c0.9-0.2,1.8-0.3,2.7-0.3h10.1c0.9,0,1.8,0.1,2.7,0.3c1.4,0.4,2.5,1.4,3,2.7c0.3,1,0.5,2.1,0.4,3.2v10
					C28.7,23.1,28.6,24.2,28.2,25.2z"/>
				<g id="_Group_4">
					<path class="st1" d="M19.1,18.7c-0.4-0.4-1-0.6-1.6-0.6c-0.6,0-1.2,0.2-1.6,0.6c-0.2,0.2-0.3,0.4-0.3,0.6
						c-0.1,0.6-0.1,1.1,0,1.7c0.1,0.7,0.2,1.6,0.3,2.5c0.1,0.4,0.1,0.9,0.3,1.3c0.2,0.5,0.7,0.8,1.3,0.8c0.6,0.1,1.1-0.3,1.3-0.8
						c0.1-0.4,0.2-0.8,0.3-1.3c0.1-0.9,0.3-1.9,0.3-2.5c0.1-0.6,0.1-1.1,0-1.7C19.3,19.1,19.3,18.9,19.1,18.7z M15.7,15.5
						c0,1,0.8,1.8,1.8,1.8s1.8-0.8,1.8-1.8s-0.8-1.8-1.8-1.8C16.5,13.7,15.7,14.5,15.7,15.5C15.7,15.5,15.7,15.5,15.7,15.5z
						 M17.5,8.3c-4.3,0-7.9,3.5-7.9,7.9c0,3.4,2.1,6.4,5.3,7.5c0.1,0,0.1,0,0.1-0.1c0,0,0,0,0,0c0-0.3-0.1-0.5-0.1-0.8
						c0-0.1-0.1-0.2-0.2-0.2c-3.5-1.5-5.1-5.6-3.6-9s5.6-5.1,9-3.6s5.1,5.6,3.6,9c-0.7,1.6-2,2.9-3.6,3.6c-0.1,0-0.1,0.1-0.2,0.2
						c0,0.3-0.1,0.5-0.1,0.8c0,0.1,0,0.1,0.1,0.1c0,0,0,0,0,0c4.1-1.4,6.3-5.9,4.8-10C23.8,10.4,20.8,8.3,17.5,8.3L17.5,8.3z
						 M17.3,11.9c2.4-0.1,4.3,1.7,4.4,4.1c0,1.2-0.4,2.4-1.3,3.3c-0.1,0.1-0.1,0.2-0.1,0.3c0,0.3,0,0.6,0,0.9c0,0.1,0,0.1,0.1,0.1
						c0,0,0.1,0,0.1,0c2.4-1.6,3-4.9,1.4-7.3s-4.9-3-7.3-1.4s-3,4.9-1.4,7.3c0.4,0.5,0.8,1,1.4,1.4c0,0,0.1,0,0.1,0c0,0,0,0,0-0.1
						c0-0.3,0-0.6,0-0.9c0-0.1,0-0.2-0.1-0.3c-1.7-1.6-1.8-4.3-0.2-6C15.2,12.4,16.2,11.9,17.3,11.9L17.3,11.9z"/>
				</g>
			</g>
		</g>
	</g>
	<path id="_Path_5" class="st1" d="M132.1,23.8c0,0.4,0,0.8,0,1.2s0,0.6,0,1c0,0.7-0.1,1.4-0.2,2.1c-0.1,0.6-0.3,1.3-0.6,1.9
		c-0.3,0.6-0.7,1.1-1.1,1.6c-0.5,0.5-1,0.8-1.6,1.1c-0.6,0.3-1.2,0.5-1.9,0.6c-0.7,0.1-1.3,0.2-2,0.2H8.1c-0.7,0-1.4-0.1-2.1-0.2
		c-0.6-0.1-1.3-0.3-1.9-0.6C3,31.9,2,31,1.4,29.8C1.1,29.2,1,28.6,0.9,28c-0.1-0.7-0.2-1.4-0.2-2c0-0.2,0-0.5,0-0.7V8.8
		c0-0.2,0-0.4,0-0.7c0-0.7,0.1-1.4,0.2-2.1C1,5.4,1.2,4.8,1.5,4.2c0.3-0.6,0.7-1.1,1.1-1.6c0.5-0.5,1-0.9,1.6-1.1
		C4.8,1.2,5.4,1,6,0.9c0.7-0.1,1.4-0.2,2.1-0.2h116.6c0.7,0,1.4,0.1,2.1,0.2c0.6,0.1,1.3,0.3,1.9,0.6c0.6,0.3,1.1,0.7,1.6,1.1
		c0.5,0.5,0.9,1,1.1,1.6c0.3,0.6,0.5,1.2,0.6,1.9c0.1,0.7,0.2,1.3,0.2,2c0,0.3,0,0.6,0,1s0,0.8,0,1.2L132.1,23.8L132.1,23.8z"/>
	
		<linearGradient id="_Path_6_1_" gradientUnits="userSpaceOnUse" x1="17.4901" y1="1049.8132" x2="17.4901" y2="1072.2068" gradientTransform="matrix(1 0 0 1 0 -1044)">
		<stop  offset="0" style="stop-color:#F0564C"/>
		<stop  offset="1" style="stop-color:#E14E50"/>
	</linearGradient>
	<path id="_Path_6" class="st4" d="M28.2,25.2c-0.3,0.7-0.8,1.4-1.4,1.9c-0.5,0.4-1,0.7-1.6,0.8c-0.9,0.2-1.8,0.3-2.7,0.3H12.4
		c-0.9,0-1.8-0.1-2.7-0.3c-1.4-0.4-2.5-1.4-3-2.7c-0.3-1-0.5-2.1-0.4-3.2l0,0V12l0,0c0-1.1,0.1-2.2,0.4-3.2c0.5-1.3,1.6-2.3,3-2.7
		c0.9-0.2,1.8-0.3,2.7-0.3h10.1c0.9,0,1.8,0.1,2.7,0.3c1.4,0.4,2.5,1.4,3,2.7c0.3,1,0.5,2.1,0.4,3.2v10
		C28.7,23.1,28.6,24.2,28.2,25.2z"/>
</g>
<g id="Layer_1_1_">
	<path class="st0" d="M33.4,7h0.9v5.2H37V13h-3.6V7z"/>
	<path class="st0" d="M38.1,7.5c0-0.3,0.3-0.5,0.5-0.5c0.3,0,0.5,0.2,0.5,0.5c0,0,0,0,0,0c0,0.3-0.2,0.5-0.5,0.5l0,0
		C38.3,8,38.1,7.8,38.1,7.5C38.1,7.5,38.1,7.5,38.1,7.5z M38.2,8.7H39V13h-0.8L38.2,8.7z"/>
	<path class="st0" d="M40.5,11.9c0.4,0.4,0.9,0.6,1.5,0.6c0.6,0,0.9-0.2,0.9-0.6s-0.5-0.6-1-0.7c-0.7-0.2-1.6-0.4-1.6-1.3
		c0-0.7,0.6-1.3,1.7-1.3c0.6,0,1.2,0.2,1.7,0.6l-0.4,0.6c-0.3-0.4-0.8-0.5-1.3-0.5c-0.5,0-0.9,0.2-0.9,0.6s0.5,0.5,1,0.6
		c0.8,0.2,1.7,0.4,1.7,1.4c0,0.8-0.6,1.3-1.8,1.3c-0.7,0-1.3-0.2-1.8-0.7L40.5,11.9z"/>
	<path class="st0" d="M45,12.1V9.4h-0.7V8.7H45V7.5h0.8v1.2h0.9v0.7h-0.9v2.5c0,0.3,0.1,0.5,0.4,0.5c0.2,0,0.3-0.1,0.4-0.2l0.2,0.6
		c-0.2,0.2-0.5,0.3-0.8,0.3c-0.6,0-1-0.4-1-1C45,12.1,45,12.1,45,12.1z"/>
	<path class="st0" d="M49.7,8.6c1.2,0,2.1,1,2.1,2.1c0,0.1,0,0.1,0,0.2v0.2h-3.4c0,0.8,0.7,1.4,1.5,1.4c0.5,0,0.9-0.2,1.3-0.5
		l0.4,0.5c-0.5,0.4-1.1,0.7-1.8,0.6c-1.2,0-2.2-0.9-2.3-2.1c0-0.1,0-0.1,0-0.2c-0.1-1.2,0.8-2.2,2.1-2.3C49.6,8.6,49.7,8.6,49.7,8.6
		z M48.4,10.6H51c0-0.7-0.6-1.3-1.3-1.3c0,0,0,0,0,0C49,9.3,48.4,9.8,48.4,10.6L48.4,10.6z"/>
	<path class="st0" d="M56,10.2c0-0.7-0.4-1-0.9-1c-0.5,0-0.9,0.2-1.2,0.6V13H53V8.7h0.8v0.6c0.4-0.4,0.9-0.7,1.5-0.7
		C56,8.5,56.7,9,56.8,9.6c0,0.1,0,0.2,0,0.3v3h-0.8L56,10.2z"/>
	<path class="st5" d="M60.6,7.5c0-0.3,0.3-0.5,0.5-0.5c0.3,0,0.5,0.2,0.5,0.5c0,0,0,0,0,0c0,0.3-0.2,0.5-0.5,0.5l0,0
		C60.8,8,60.6,7.8,60.6,7.5C60.6,7.5,60.6,7.5,60.6,7.5z M60.7,8.7h0.8V13h-0.8V8.7z"/>
	<path class="st5" d="M65.9,10.2c0-0.7-0.4-1-0.9-1c-0.5,0-0.9,0.2-1.2,0.6V13H63V8.7h0.8v0.6c0.4-0.4,0.9-0.7,1.5-0.7
		C66,8.5,66.7,9,66.8,9.6c0,0.1,0,0.2,0,0.3v3h-0.8V10.2z"/>
</g>
<g id="Layer_3" class="st6">
	<path class="st7" d="M33.2,17.6h4.1c1.6-0.1,3,1.1,3.1,2.8c0.1,1.6-1.1,3-2.8,3.1c-0.1,0-0.2,0-0.3,0h-2.5V27h-1.6V17.6z M37,19.1
		h-2.2v3h2.2c0.8,0,1.5-0.7,1.5-1.5S37.9,19.1,37,19.1z"/>
	<path class="st7" d="M41,23.6c0-1.9,1.6-3.5,3.5-3.5s3.5,1.6,3.5,3.5s-1.6,3.5-3.5,3.5S41,25.5,41,23.6z M46.4,23.6
		c0.2-1.1-0.5-2.1-1.5-2.4c-1.1-0.2-2.1,0.5-2.4,1.5c-0.1,0.3-0.1,0.6,0,0.8c-0.2,1.1,0.5,2.1,1.5,2.4c1.1,0.2,2.1-0.5,2.4-1.5
		C46.5,24.2,46.5,23.9,46.4,23.6z"/>
	<path class="st7" d="M52.6,20c1-0.1,2,0.4,2.6,1.2l-1,0.9c-0.3-0.5-0.9-0.8-1.6-0.8c-1.1,0-2,0.9-2,2c0,0.1,0,0.2,0,0.3
		c-0.1,1.1,0.7,2.1,1.8,2.2c0.1,0,0.1,0,0.2,0c0.6,0,1.2-0.3,1.6-0.8l1,0.9c-0.6,0.8-1.6,1.3-2.6,1.2c-1.9,0.1-3.4-1.4-3.5-3.3
		c0-0.1,0-0.2,0-0.3c-0.1-1.9,1.4-3.5,3.3-3.5C52.4,20,52.5,20,52.6,20z"/>
	<path class="st7" d="M58.8,24.2l-0.9,1V27h-1.5v-9.4h1.5v5.8l3-3.3h1.8l-2.8,3.1l2.9,3.7h-1.8L58.8,24.2z"/>
	<path class="st7" d="M66.4,20c2,0,3.3,1.5,3.3,3.7V24h-5.2c0.1,1.1,1,1.9,2.1,1.9c0,0,0,0,0,0c0.7,0,1.4-0.3,1.9-0.7l0.7,1
		c-0.8,0.7-1.7,1-2.8,1c-1.9,0.1-3.4-1.4-3.5-3.3c0-0.1,0-0.2,0-0.3c-0.1-1.9,1.4-3.5,3.2-3.6C66.3,20,66.3,20,66.4,20z M64.5,23
		h3.8c0-1-0.8-1.8-1.8-1.8c0,0,0,0-0.1,0C65.4,21.2,64.5,22,64.5,23z"/>
	<path class="st7" d="M71.4,25.4v-3.9h-1.1v-1.3h1.1v-1.8h1.5v1.9h1.4v1.3h-1.4v3.5c0,0.5,0.2,0.8,0.6,0.8c0.2,0,0.5-0.1,0.7-0.2
		l0.3,1.1c-0.4,0.3-0.9,0.5-1.4,0.4c-0.9,0.1-1.6-0.5-1.7-1.4C71.4,25.7,71.4,25.5,71.4,25.4z"/>
	<path class="st7" d="M78.8,22.3c-0.1-2.6,2-4.8,4.6-4.8c0.1,0,0.2,0,0.3,0c1.6-0.1,3,0.8,3.8,2.1l-1.4,0.7
		c-0.5-0.8-1.4-1.4-2.4-1.4c-1.8,0-3.2,1.5-3.2,3.2c0,0.1,0,0.1,0,0.2c-0.1,1.8,1.2,3.3,3,3.4c0.1,0,0.1,0,0.2,0
		c1,0,1.9-0.5,2.4-1.4l1.4,0.7c-0.8,1.3-2.3,2.1-3.8,2.1c-2.6,0.1-4.8-2-4.8-4.6C78.8,22.5,78.8,22.4,78.8,22.3z"/>
	<path class="st7" d="M93,26.2c-0.6,0.6-1.4,0.9-2.2,0.9c-1.2,0.1-2.3-0.9-2.3-2.1c0,0,0-0.1,0-0.1c0-1.2,0.9-2.2,2.2-2.2
		c0.1,0,0.1,0,0.2,0c0.8,0,1.6,0.3,2.2,0.9v-1c0-0.8-0.6-1.3-1.6-1.3c-0.8,0-1.5,0.3-2,0.9l-0.6-1c0.8-0.8,1.8-1.2,2.8-1.2
		c1.5,0,2.8,0.6,2.8,2.5V27H93V26.2z M93,24.4c-0.4-0.5-1-0.7-1.6-0.7c-0.7-0.1-1.3,0.3-1.4,1s0.3,1.3,1,1.4c0.1,0,0.3,0,0.4,0
		c0.6,0,1.2-0.2,1.6-0.7V24.4z"/>
	<path class="st7" d="M96.4,25c0.6,0.6,1.4,1,2.3,1c0.9,0,1.3-0.3,1.3-0.8s-0.7-0.8-1.5-1c-1.2-0.2-2.6-0.6-2.6-2.1
		c0-1.1,1-2.1,2.7-2.1c1,0,1.9,0.3,2.6,1l-0.6,1c-0.5-0.5-1.3-0.8-2-0.8c-0.8,0-1.3,0.3-1.3,0.8s0.7,0.7,1.5,0.9
		c1.2,0.2,2.6,0.6,2.6,2.2c0,1.2-1,2.1-2.8,2.1c-1.1,0-2.1-0.3-2.9-1L96.4,25z"/>
	<path class="st7" d="M103.3,25.4v-3.9h-1.1v-1.3h1.1v-1.8h1.5v1.9h1.4v1.3h-1.4v3.5c0,0.5,0.2,0.8,0.6,0.8c0.2,0,0.5-0.1,0.7-0.2
		l0.3,1.1c-0.4,0.3-0.9,0.5-1.4,0.4c-0.9,0.1-1.6-0.5-1.7-1.4C103.3,25.7,103.3,25.5,103.3,25.4z"/>
	<path class="st7" d="M107.8,25c0.6,0.6,1.4,1,2.3,1c0.9,0,1.3-0.3,1.3-0.8s-0.7-0.8-1.5-1c-1.2-0.2-2.6-0.6-2.6-2.1
		c0-1.1,1-2.1,2.7-2.1c1,0,1.9,0.3,2.6,1l-0.6,1c-0.5-0.5-1.3-0.8-2-0.8c-0.8,0-1.3,0.3-1.3,0.8s0.7,0.7,1.5,0.9
		c1.2,0.2,2.6,0.6,2.6,2.2c0,1.2-1,2.1-2.8,2.1c-1.1,0-2.1-0.3-2.9-1L107.8,25z"/>
</g>
<g id="Icon_1_">
	<path class="st8" d="M23.8,28.2H11.1c-2.7,0-4.8-2.2-4.8-4.8V10.7c0-2.7,2.2-4.8,4.8-4.8h12.7c2.7,0,4.8,2.2,4.8,4.8v12.7
		C28.7,26,26.5,28.2,23.8,28.2z"/>
	<path class="st9" d="M10.2,11c7.3,0,13.2,5.9,13.2,13.2"/>
	<path class="st9" d="M10.2,16.7c4.1,0,7.5,3.4,7.5,7.5"/>
	<circle class="st1" cx="11.8" cy="22.7" r="1.6"/>
</g>
<text transform="matrix(1 0 0 1 32.2495 26.8848)" class="st10 st11">Rss Feed Url</text>
<g>
	<text transform="matrix(1 0 0 1 59.7874 12.957)" class="st12 st13 st14">Using</text>
</g>
</svg>
